<svg xmlns="http://www.w3.org/2000/svg" xmlns:xlink="http://www.w3.org/1999/xlink" width="500" zoomAndPan="magnify" viewBox="0 0 375 374.999991" height="500" preserveAspectRatio="xMidYMid meet" version="1.0"><defs><g/></defs><g fill="#ffffff" fill-opacity="1"><g transform="translate(7.085581, 224.43731)"><g><path d="M 22.804688 1.210938 C 37.996094 0.226562 52.554688 -8.984375 61.546875 -14.367188 C 66.1875 -17.136719 70.785156 -18.671875 75.011719 -18.945312 C 78.460938 -19.167969 81.667969 -18.558594 84.453125 -17.105469 C 84.617188 -17.039062 84.796875 -17.007812 84.976562 -17.019531 C 85.234375 -17.039062 85.445312 -17.132812 85.433594 -17.289062 C 85.429688 -17.390625 85.320312 -17.523438 85.074219 -17.664062 C 82.015625 -19.378906 78.585938 -20.050781 74.894531 -19.8125 C 70.253906 -19.511719 65.210938 -17.75 60.074219 -14.667969 C 51.523438 -9.554688 47.5625 -6.707031 37.460938 -3.125 C 33.371094 -1.664062 28.585938 -0.519531 23.984375 -0.222656 C 16.347656 0.273438 9.160156 -1.570312 6.257812 -8.234375 C 5.535156 -9.859375 5.144531 -11.566406 5.03125 -13.3125 C 4.390625 -23.226562 12.824219 -34.429688 21.945312 -40.917969 C 29.539062 -46.308594 39.050781 -50.132812 47.71875 -50.695312 C 50.890625 -50.898438 53.933594 -50.679688 56.75 -49.925781 C 58.640625 -48.753906 60.84375 -47.941406 62.917969 -47.296875 C 63.242188 -47.199219 63.523438 -47.15625 63.742188 -47.171875 C 64.117188 -47.195312 64.304688 -47.367188 64.289062 -47.605469 C 64.277344 -47.824219 64.058594 -48.128906 63.601562 -48.398438 C 62.253906 -49.246094 60.792969 -49.929688 59.226562 -50.464844 C 57.429688 -51.722656 56.164062 -53.472656 56.023438 -55.632812 C 55.90625 -57.398438 56.53125 -59.453125 58.234375 -61.773438 C 60.636719 -60.933594 62.929688 -59.984375 65.0625 -59.027344 C 69.429688 -57.101562 74.59375 -54.566406 80.367188 -54.941406 C 84.152344 -55.1875 87.671875 -56.828125 88.578125 -60.054688 C 88.707031 -60.523438 88.757812 -60.984375 88.726562 -61.457031 C 88.574219 -63.78125 86.664062 -66.203125 84.46875 -67.515625 C 80.90625 -69.636719 76.078125 -70.695312 71.058594 -70.371094 C 66.359375 -70.066406 61.519531 -68.539062 57.453125 -65.503906 C 56.75 -64.980469 56.109375 -64.421875 55.53125 -63.828125 C 50.546875 -65.457031 45.28125 -66.488281 39.707031 -66.128906 C 38.378906 -66.042969 37.035156 -65.875 35.675781 -65.628906 C 18.203125 -62.34375 13.125 -48.808594 13.195312 -47.738281 C 13.199219 -47.679688 13.203125 -47.660156 13.222656 -47.660156 C 13.261719 -47.664062 13.335938 -47.746094 13.425781 -47.914062 C 17.96875 -57.988281 30.472656 -63.875 41.320312 -64.578125 C 45.960938 -64.878906 50.050781 -64.210938 54.695312 -62.898438 C 53.03125 -60.898438 52.066406 -58.605469 52.210938 -56.382812 C 52.328125 -54.539062 53.207031 -52.980469 54.550781 -51.613281 C 51.972656 -52.027344 49.238281 -52.128906 46.402344 -51.941406 C 27.542969 -50.71875 4.730469 -36.992188 0.378906 -19.066406 C -0.0664062 -17.28125 -0.210938 -15.5625 -0.105469 -13.933594 C 0.433594 -5.625 7.601562 0.203125 16.34375 1.109375 C 18.488281 1.332031 20.660156 1.347656 22.804688 1.210938 Z M 79.40625 -55.617188 C 74.128906 -55.273438 68.578125 -58.558594 64.890625 -60.171875 C 62.941406 -61.023438 60.957031 -61.847656 58.914062 -62.632812 C 62.144531 -66.289062 67.984375 -68.636719 72.671875 -69.179688 L 73.480469 -69.253906 C 77.6875 -69.527344 83.441406 -68.347656 85.898438 -65.4375 C 86.632812 -64.570312 87.058594 -63.523438 87.128906 -62.410156 C 87.257812 -60.449219 86.242188 -58.308594 83.820312 -56.917969 C 82.402344 -56.109375 80.914062 -55.714844 79.40625 -55.617188 Z M 79.40625 -55.617188 "/></g></g></g><g fill="#ffffff" fill-opacity="1"><g transform="translate(91.672231, 218.952852)"><g><path d="M 2.378906 -2.960938 C 6.523438 -3.230469 12.722656 -6.800781 19.121094 -13.789062 L 18.824219 -13.769531 C 13.332031 -8.152344 6.632812 -3.957031 2.808594 -3.707031 C 1.003906 -3.589844 -0.183594 -4.351562 -0.304688 -6.214844 C -0.441406 -8.335938 0.78125 -11.902344 3.9375 -17.285156 C 6.960938 -22.261719 13.90625 -32.46875 20.363281 -39.820312 C 23.601562 -39.929688 26.824219 -39.957031 30.195312 -40.175781 C 34.242188 -40.441406 38.492188 -40.972656 43.109375 -42.210938 C 54.226562 -45.242188 58.832031 -50.71875 58.554688 -54.960938 C 58.324219 -58.53125 54.644531 -61.199219 48.539062 -60.804688 C 45.5625 -60.613281 42.015625 -59.683594 37.996094 -57.792969 C 29.828125 -53.875 22.351562 -47.238281 16.304688 -40.351562 C -2.789062 -38.4375 -7.03125 -29.777344 -7.507812 -29.46875 C -7.5625 -29.382812 -7.59375 -29.28125 -7.589844 -29.203125 C -7.574219 -28.984375 -7.367188 -28.820312 -7.167969 -28.832031 C -7.066406 -28.839844 -6.953125 -28.90625 -6.878906 -29.011719 C -2.078125 -35.714844 7.375 -38.617188 15.542969 -39.484375 C 10.503906 -33.644531 5.800781 -27.261719 1.125 -18.894531 C -1.714844 -13.832031 -2.816406 -9.953125 -2.644531 -7.296875 C -2.445312 -4.222656 -0.558594 -2.773438 2.378906 -2.960938 Z M 28.617188 -40.910156 C 25.621094 -40.71875 23.171875 -40.699219 21.105469 -40.644531 C 32.824219 -53.730469 43.101562 -58.640625 49.625 -59.0625 C 54.128906 -59.355469 56.855469 -57.5 57.035156 -54.742188 C 57.066406 -54.269531 57.019531 -53.785156 56.910156 -53.28125 C 55.167969 -45.441406 40.363281 -42.191406 32.417969 -41.238281 C 31.054688 -41.089844 29.804688 -40.988281 28.617188 -40.910156 Z M 28.617188 -40.910156 "/></g></g></g><g fill="#ffffff" fill-opacity="1"><g transform="translate(110.845998, 217.709656)"><g><path d="M 0.015625 -2.550781 C 5.488281 -2.90625 14.558594 -10.164062 17.097656 -13.355469 C 17.152344 -13.421875 17.171875 -13.480469 17.167969 -13.519531 C 17.164062 -13.601562 17.078125 -13.65625 16.980469 -13.648438 C 16.859375 -13.640625 16.707031 -13.570312 16.597656 -13.425781 C 13.519531 -9.601562 4.988281 -3.867188 1.277344 -3.628906 C -0.210938 -3.53125 -0.804688 -4.410156 -0.871094 -5.421875 C -1.09375 -8.890625 3.554688 -15.1875 5.09375 -18.195312 C 5.253906 -18.484375 5.3125 -18.808594 5.292969 -19.125 C 5.214844 -20.3125 4.046875 -21.453125 3.332031 -21.40625 C 3.191406 -21.398438 3.078125 -21.351562 2.984375 -21.246094 C 2.539062 -20.738281 1.21875 -18.042969 -0.179688 -15.34375 C -1.933594 -11.984375 -3.78125 -7.941406 -3.613281 -5.324219 C -3.488281 -3.417969 -2.285156 -2.402344 0.015625 -2.550781 Z M 8.363281 -23.085938 C 9.15625 -23.140625 9.433594 -23.457031 9.40625 -23.851562 C 9.371094 -24.386719 8.769531 -25.066406 8.175781 -25.367188 C 7.351562 -25.75 6.640625 -25.964844 5.988281 -25.921875 C 5.75 -25.90625 5.535156 -25.851562 5.320312 -25.777344 C 4.988281 -25.636719 4.847656 -25.390625 4.867188 -25.089844 C 4.917969 -24.296875 6.125 -23.160156 7.925781 -23.078125 C 8.085938 -23.070312 8.242188 -23.078125 8.363281 -23.085938 Z M 8.363281 -23.085938 "/></g></g></g><g fill="#ffffff" fill-opacity="1"><g transform="translate(128.155925, 216.58731)"><g><path d="M 1.496094 -2.746094 C 5.003906 -2.972656 8.6875 -4.863281 9.269531 -8.1875 C 10.941406 -7.859375 12.535156 -7.5625 13.808594 -7.566406 L 15.0625 -7.609375 C 20.515625 -7.960938 22.207031 -10.105469 23.582031 -13.5 C 23.675781 -13.605469 23.710938 -13.6875 23.707031 -13.726562 C 23.703125 -13.765625 23.664062 -13.78125 23.605469 -13.777344 C 23.503906 -13.773438 23.332031 -13.683594 23.238281 -13.597656 C 22.210938 -11.277344 20.902344 -8.425781 15.546875 -8.078125 C 14.992188 -8.042969 14.414062 -8.042969 13.777344 -8.0625 C 12.558594 -8.105469 10.96875 -8.378906 9.335938 -8.691406 C 9.386719 -9.132812 9.378906 -9.570312 9.351562 -9.96875 C 9.210938 -12.128906 8.300781 -13.882812 8.179688 -15.765625 C 8.117188 -16.699219 8.253906 -17.664062 8.785156 -18.714844 C 9.296875 -19.703125 10.195312 -20.597656 11.226562 -21.28125 C 12.105469 -21.855469 13.101562 -22.160156 14.015625 -22.21875 C 15.859375 -22.339844 17.265625 -21.554688 17.359375 -20.105469 C 17.484375 -16.609375 13.671875 -14.886719 13.695312 -14.570312 C 13.695312 -14.53125 13.738281 -14.511719 13.796875 -14.515625 C 14.472656 -14.5625 17.570312 -16.515625 18.316406 -19.429688 C 18.414062 -19.796875 18.453125 -20.136719 18.429688 -20.453125 C 18.285156 -22.675781 15.554688 -23.933594 13.441406 -23.972656 L 12.625 -23.960938 C 9.691406 -23.769531 7.214844 -22.335938 5.960938 -20.164062 C 3.238281 -17.9375 1.015625 -14.464844 -1.707031 -11.558594 C -1.839844 -11.453125 -1.890625 -11.367188 -1.886719 -11.308594 C -1.878906 -11.152344 -1.539062 -11.113281 -1.539062 -11.113281 C 0.847656 -13.359375 2.730469 -16.25 5.234375 -18.464844 C 5.132812 -17.917969 5.070312 -17.355469 5.109375 -16.722656 C 5.238281 -14.71875 6.191406 -12.609375 6.324219 -10.605469 C 6.351562 -10.171875 6.339844 -9.75 6.265625 -9.328125 C 4.570312 -9.65625 3.019531 -9.933594 1.925781 -9.945312 C 1.566406 -9.941406 1.1875 -9.9375 0.773438 -9.910156 C -1.074219 -9.789062 -3.25 -9.289062 -4.535156 -7.613281 C -4.921875 -7.109375 -5.046875 -6.605469 -5.015625 -6.109375 C -4.957031 -5.195312 -4.308594 -4.382812 -3.535156 -3.855469 C -2.246094 -2.980469 -0.390625 -2.625 1.496094 -2.746094 Z M -0.234375 -3.609375 C -1.1875 -3.546875 -2.113281 -3.746094 -3.007812 -4.285156 C -3.691406 -4.71875 -4.015625 -5.394531 -4.054688 -6.03125 C -4.085938 -6.527344 -3.941406 -7.015625 -3.683594 -7.347656 C -2.59375 -8.695312 -1.152344 -9.1875 0.613281 -9.300781 C 2.257812 -9.40625 4.0625 -9.226562 6.160156 -8.84375 L 6.144531 -8.761719 C 5.457031 -6.429688 2.640625 -3.796875 -0.234375 -3.609375 Z M -0.234375 -3.609375 "/></g></g></g><g fill="#ffffff" fill-opacity="1"><g transform="translate(151.791013, 215.05485)"><g><path d="M -4.457031 -3.296875 C -4.375 -3.300781 -4.300781 -3.347656 -4.226562 -3.429688 C 1.617188 -11.617188 5.550781 -16.371094 13.75 -21.664062 C 15.03125 -22.484375 16.484375 -23.136719 17.355469 -23.191406 C 17.8125 -23.222656 18.121094 -23.082031 18.144531 -22.726562 C 18.175781 -21.910156 16.234375 -18.71875 13.273438 -14.902344 C 11.199219 -12.21875 10.234375 -9.585938 10.359375 -7.640625 C 10.453125 -6.175781 11.199219 -5.109375 12.539062 -4.738281 C 13.046875 -4.609375 13.644531 -4.570312 14.359375 -4.617188 C 18.839844 -4.90625 26.863281 -8.671875 31.492188 -14.050781 C 31.546875 -14.113281 31.566406 -14.15625 31.566406 -14.175781 C 31.5625 -14.214844 31.542969 -14.214844 31.503906 -14.210938 C 31.363281 -14.203125 31.019531 -14 30.851562 -13.789062 C 28.828125 -10.929688 20.6875 -6.242188 16.265625 -5.953125 C 14.519531 -5.839844 13.460938 -6.46875 13.378906 -7.777344 C 13.136719 -11.46875 21.1875 -18.203125 22.042969 -22.480469 C 22.074219 -22.640625 22.082031 -22.800781 22.074219 -22.960938 C 22.007812 -23.953125 21.1875 -24.914062 20.058594 -25.121094 C 19.757812 -25.179688 19.417969 -25.199219 19.0625 -25.175781 C 16.898438 -25.035156 14.089844 -23.519531 11.570312 -21.820312 C 7.929688 -19.335938 5.363281 -17.136719 2.984375 -14.792969 L 6.976562 -20.785156 C 11.121094 -26.890625 16.296875 -34.039062 21.292969 -39.582031 C 24 -39.617188 26.726562 -39.652344 29.441406 -39.828125 C 33.507812 -40.09375 37.621094 -40.578125 41.761719 -41.523438 C 45.136719 -42.320312 48.488281 -43.414062 51.605469 -45.109375 C 53.144531 -45.96875 54.632812 -46.960938 55.921875 -48.257812 C 57.644531 -49.964844 58.929688 -52.257812 58.761719 -54.835938 C 58.675781 -56.164062 58.078125 -57.402344 57.074219 -58.449219 C 55.011719 -60.449219 52.035156 -60.914062 49.316406 -60.734375 C 48.367188 -60.675781 47.417969 -60.535156 46.496094 -60.355469 C 41.367188 -59.265625 36.671875 -56.730469 32.15625 -53.589844 C 26.671875 -49.707031 21.8125 -45.109375 17.351562 -40.160156 C 15.136719 -39.957031 12.921875 -39.65625 10.722656 -39.195312 C 4.335938 -37.84375 -3.007812 -35.015625 -7.191406 -29.210938 C -7.246094 -29.125 -7.28125 -29.042969 -7.273438 -28.945312 C -7.261719 -28.726562 -7.050781 -28.582031 -6.851562 -28.59375 C -6.734375 -28.601562 -6.617188 -28.648438 -6.566406 -28.75 C -4.59375 -31.507812 -1.800781 -33.621094 1.203125 -35.171875 C 6.003906 -37.613281 11.089844 -38.777344 16.589844 -39.316406 C 11.882812 -33.910156 7.941406 -28.65625 4.019531 -22.765625 C 2.097656 -19.875 0.320312 -16.871094 -1.4375 -13.886719 C -3.078125 -10.894531 -3.449219 -10.210938 -5.15625 -7.015625 C -5.433594 -6.417969 -5.859375 -5.914062 -5.832031 -5.160156 C -5.800781 -4.683594 -4.992188 -3.261719 -4.457031 -3.296875 Z M 28.890625 -40.652344 C 26.609375 -40.503906 24.324219 -40.453125 22.035156 -40.40625 C 25.621094 -44.421875 29.457031 -48.214844 33.6875 -51.496094 C 36.359375 -53.5625 39.1875 -55.417969 42.222656 -56.851562 C 44.636719 -57.964844 47.210938 -58.828125 49.808594 -58.996094 C 52.089844 -59.144531 54.464844 -58.78125 56.011719 -57.347656 C 56.816406 -56.601562 57.28125 -55.578125 57.351562 -54.484375 C 57.378906 -54.089844 57.34375 -53.667969 57.269531 -53.265625 C 56.75 -50.242188 53.917969 -47.828125 51 -46.167969 C 48.082031 -44.503906 44.804688 -43.394531 41.515625 -42.5625 C 37.535156 -41.570312 33.175781 -40.929688 28.890625 -40.652344 Z M 28.890625 -40.652344 "/></g></g></g><g fill="#ffffff" fill-opacity="1"><g transform="translate(183.634932, 212.990143)"><g><path d="M 15.074219 -3.445312 C 20.546875 -3.800781 29.617188 -11.042969 32.15625 -14.234375 C 32.214844 -14.296875 32.230469 -14.359375 32.226562 -14.398438 C 32.222656 -14.496094 32.140625 -14.53125 32.039062 -14.523438 C 31.921875 -14.515625 31.785156 -14.449219 31.65625 -14.300781 C 28.578125 -10.457031 20.046875 -4.746094 16.339844 -4.503906 C 14.851562 -4.410156 14.253906 -5.304688 14.1875 -6.316406 C 13.964844 -9.789062 18.59375 -16.082031 20.171875 -19.074219 C 20.3125 -19.363281 20.375 -19.664062 20.355469 -19.980469 C 20.277344 -21.171875 19.085938 -22.347656 18.390625 -22.304688 C 18.25 -22.292969 18.136719 -22.246094 18.042969 -22.140625 C 17.597656 -21.613281 16.972656 -20.816406 16.238281 -19.855469 C 15.789062 -21.894531 13.625 -23.011719 10.96875 -22.839844 C 9.617188 -22.75 8.152344 -22.335938 6.707031 -21.566406 C 2.9375 -19.527344 0.46875 -16.421875 -0.898438 -13.882812 C -2.09375 -11.695312 -2.839844 -9.695312 -2.738281 -8.109375 C -2.652344 -6.820312 -1.992188 -5.824219 -0.519531 -5.265625 C 0.0507812 -5.042969 0.632812 -4.960938 1.25 -5 C 5.59375 -5.28125 10.992188 -11.386719 14.882812 -16.222656 C 13.035156 -12.734375 11.238281 -8.796875 11.40625 -6.214844 C 11.53125 -4.3125 12.773438 -3.296875 15.074219 -3.445312 Z M 1.703125 -6.285156 C 1.050781 -6.242188 0.632812 -6.535156 0.582031 -7.289062 C 0.546875 -7.824219 0.714844 -8.609375 1.105469 -9.671875 C 2.613281 -13.734375 6.089844 -17.601562 8.039062 -19.164062 C 9.441406 -20.269531 11.160156 -21.097656 12.585938 -21.191406 C 14.035156 -21.285156 15.175781 -20.601562 15.304688 -18.617188 C 13.285156 -15.9375 10.734375 -12.625 8.6875 -10.699219 C 6.527344 -8.6875 3.371094 -6.390625 1.703125 -6.285156 Z M 1.703125 -6.285156 "/></g></g></g><g fill="#ffffff" fill-opacity="1"><g transform="translate(215.677132, 210.91258)"><g/></g></g><g fill="#ffffff" fill-opacity="1"><g transform="translate(229.457669, 210.019073)"><g><path d="M 23.929688 3.527344 C 24.761719 3.472656 25.613281 3.398438 26.484375 3.28125 C 37.441406 1.816406 47.644531 -1.773438 57.84375 -9.445312 C 59.742188 -9.351562 61.730469 -9.359375 63.753906 -9.492188 C 70.734375 -9.945312 78.152344 -11.957031 83.597656 -17.371094 C 83.691406 -17.457031 83.707031 -17.515625 83.707031 -17.554688 C 83.699219 -17.636719 83.636719 -17.671875 83.539062 -17.664062 C 83.441406 -17.660156 83.285156 -17.589844 83.152344 -17.480469 C 77.839844 -12.8125 71.417969 -10.785156 64.636719 -10.34375 C 62.769531 -10.222656 60.898438 -10.222656 59 -10.316406 C 59.644531 -10.839844 60.289062 -11.335938 60.929688 -11.878906 C 71.816406 -20.949219 80.355469 -33.609375 82.773438 -47.929688 C 83.015625 -49.417969 83.109375 -50.996094 83.011719 -52.542969 C 82.675781 -57.679688 80.328125 -62.605469 75.238281 -63.652344 C 74.332031 -63.832031 73.429688 -63.894531 72.558594 -63.835938 C 65.398438 -63.371094 59.480469 -55.121094 52.289062 -47.167969 L 48.699219 -43.25 C 53.898438 -50.894531 58.601562 -58.886719 62.910156 -67.074219 C 62.945312 -67.136719 62.941406 -67.175781 62.9375 -67.234375 C 62.898438 -67.871094 61.222656 -68.796875 60.390625 -68.742188 C 60.25 -68.734375 60.117188 -68.6875 60.042969 -68.601562 C 54.148438 -62.125 44.535156 -62 36.382812 -59.679688 C 27.914062 -57.277344 22.558594 -51.992188 23.082031 -43.9375 C 23.132812 -43.183594 23.242188 -42.394531 23.394531 -41.570312 C 23.484375 -41.136719 23.613281 -40.648438 23.714844 -40.652344 C 23.753906 -40.65625 23.789062 -40.71875 23.796875 -40.898438 C 23.722656 -41.449219 23.6875 -41.984375 23.652344 -42.519531 C 23.347656 -47.222656 24.457031 -50.699219 27.914062 -53.871094 C 30.90625 -56.59375 35.503906 -57.847656 39.621094 -58.832031 C 45.660156 -60.300781 51.972656 -60.371094 57.882812 -63.480469 C 53.703125 -54.25 49.769531 -48.875 44.828125 -41.804688 C 41.3125 -36.796875 37.421875 -31.980469 33.128906 -27.519531 C 29.898438 -24.523438 26.601562 -21.621094 23.214844 -18.851562 C 18.234375 -20.402344 14.261719 -20.839844 11.308594 -20.648438 C 7.816406 -20.421875 5.339844 -19.328125 3.421875 -17.867188 C 0.691406 -15.777344 -0.277344 -12.886719 -0.09375 -10.03125 C 0.046875 -7.871094 0.84375 -5.75 2.050781 -4.015625 C 5.339844 0.667969 13.792969 4.183594 23.929688 3.527344 Z M 53.027344 -10.925781 C 42.972656 -12.367188 32.96875 -15.859375 25.105469 -18.277344 C 30.523438 -22.234375 38.011719 -28.695312 46.613281 -38.554688 C 56.476562 -49.847656 65.539062 -62.464844 72.675781 -62.929688 C 73.964844 -63.011719 75.183594 -62.691406 76.328125 -61.929688 C 78.554688 -60.421875 79.511719 -57.078125 79.714844 -53.945312 C 79.816406 -52.375 79.734375 -50.878906 79.511719 -49.667969 C 77.199219 -37.128906 69.140625 -25.613281 60.019531 -17.015625 C 57.769531 -14.878906 55.453125 -12.835938 53.027344 -10.925781 Z M 21.660156 1.722656 C 13.332031 2.261719 7.429688 0.296875 3.640625 -3.742188 C 2.25 -5.222656 1.316406 -7.335938 1.171875 -9.554688 C 0.941406 -13.125 2.722656 -16.984375 7.75 -18.984375 C 8.972656 -19.484375 10.3125 -19.75 11.699219 -19.839844 C 14.851562 -20.042969 18.441406 -19.339844 22.421875 -18.203125 C 20.792969 -16.902344 19.160156 -15.640625 17.488281 -14.398438 C 17.414062 -14.332031 17.375 -14.292969 17.378906 -14.273438 C 17.382812 -14.210938 17.5 -14.199219 17.679688 -14.210938 C 18.355469 -14.253906 20 -14.699219 20.511719 -15.09375 C 20.703125 -15.222656 20.871094 -15.375 21.082031 -15.507812 C 22.019531 -16.105469 23.085938 -16.832031 24.246094 -17.664062 C 32.050781 -15.28125 41.230469 -11.617188 51.507812 -10.070312 L 51.867188 -10.035156 C 44.179688 -4.199219 35.347656 0.257812 23.859375 1.519531 C 23.109375 1.609375 22.375 1.675781 21.660156 1.722656 Z M 21.660156 1.722656 "/></g></g></g><g fill="#ffffff" fill-opacity="1"><g transform="translate(312.696008, 204.622037)"><g><path d="M 15.074219 -3.445312 C 20.546875 -3.800781 29.617188 -11.042969 32.15625 -14.234375 C 32.214844 -14.296875 32.230469 -14.359375 32.226562 -14.398438 C 32.222656 -14.496094 32.140625 -14.53125 32.039062 -14.523438 C 31.921875 -14.515625 31.785156 -14.449219 31.65625 -14.300781 C 28.578125 -10.457031 20.046875 -4.746094 16.339844 -4.503906 C 14.851562 -4.410156 14.253906 -5.304688 14.1875 -6.316406 C 13.964844 -9.789062 18.59375 -16.082031 20.171875 -19.074219 C 20.3125 -19.363281 20.375 -19.664062 20.355469 -19.980469 C 20.277344 -21.171875 19.085938 -22.347656 18.390625 -22.304688 C 18.25 -22.292969 18.136719 -22.246094 18.042969 -22.140625 C 17.597656 -21.613281 16.972656 -20.816406 16.238281 -19.855469 C 15.789062 -21.894531 13.625 -23.011719 10.96875 -22.839844 C 9.617188 -22.75 8.152344 -22.335938 6.707031 -21.566406 C 2.9375 -19.527344 0.46875 -16.421875 -0.898438 -13.882812 C -2.09375 -11.695312 -2.839844 -9.695312 -2.738281 -8.109375 C -2.652344 -6.820312 -1.992188 -5.824219 -0.519531 -5.265625 C 0.0507812 -5.042969 0.632812 -4.960938 1.25 -5 C 5.59375 -5.28125 10.992188 -11.386719 14.882812 -16.222656 C 13.035156 -12.734375 11.238281 -8.796875 11.40625 -6.214844 C 11.53125 -4.3125 12.773438 -3.296875 15.074219 -3.445312 Z M 1.703125 -6.285156 C 1.050781 -6.242188 0.632812 -6.535156 0.582031 -7.289062 C 0.546875 -7.824219 0.714844 -8.609375 1.105469 -9.671875 C 2.613281 -13.734375 6.089844 -17.601562 8.039062 -19.164062 C 9.441406 -20.269531 11.160156 -21.097656 12.585938 -21.191406 C 14.035156 -21.285156 15.175781 -20.601562 15.304688 -18.617188 C 13.285156 -15.9375 10.734375 -12.625 8.6875 -10.699219 C 6.527344 -8.6875 3.371094 -6.390625 1.703125 -6.285156 Z M 1.703125 -6.285156 "/></g></g></g><g fill="#ffffff" fill-opacity="1"><g transform="translate(344.738208, 202.544474)"><g><path d="M -38.804688 31.535156 C -36.167969 31.363281 -33.316406 30.761719 -30.332031 29.828125 C -13.132812 24.472656 0.433594 10.347656 9.03125 -1.082031 C 17.589844 -3.910156 25.007812 -7.796875 29.789062 -14.199219 C 29.828125 -14.242188 29.84375 -14.285156 29.84375 -14.324219 C 29.839844 -14.382812 29.757812 -14.417969 29.65625 -14.410156 C 29.519531 -14.402344 29.304688 -14.308594 29.160156 -14.121094 C 25.207031 -8.683594 18.101562 -4.957031 9.78125 -2.089844 C 15.605469 -9.972656 18.976562 -16.367188 19.472656 -17.316406 C 19.894531 -18.140625 20.445312 -19.152344 20.402344 -19.863281 C 20.335938 -20.578125 19.664062 -21.410156 19.074219 -21.589844 C 18.910156 -21.640625 18.769531 -21.671875 18.632812 -21.664062 C 18.453125 -21.652344 18.296875 -21.582031 18.167969 -21.433594 C 17.230469 -20.21875 15.382812 -17.707031 14.414062 -16.648438 C 11.960938 -13.941406 8.859375 -10.195312 3.839844 -6.800781 C 3.175781 -6.339844 2.589844 -6.144531 2.132812 -6.113281 C 1.21875 -6.054688 0.804688 -6.605469 0.761719 -7.277344 C 0.765625 -10.304688 2.785156 -15.417969 7.1875 -20.304688 C 7.28125 -20.386719 7.316406 -20.492188 7.308594 -20.609375 C 7.265625 -21.222656 6.125 -22.246094 5.152344 -22.183594 C 4.894531 -22.164062 4.644531 -22.070312 4.4375 -21.878906 C 0.00390625 -17.746094 -2.785156 -11.628906 -2.5625 -8.199219 C -2.445312 -6.394531 -1.542969 -5.375 0.113281 -5.007812 C 0.4375 -4.929688 0.796875 -4.910156 1.152344 -4.933594 C 5.675781 -5.226562 12.492188 -12.800781 16.453125 -17.179688 C 14.5625 -13.472656 11.125 -7.472656 6.078125 -0.890625 C -9.234375 3.785156 -27.445312 6.121094 -37.878906 10.761719 C -48.820312 15.613281 -51.433594 20.402344 -51.203125 23.972656 C -51.015625 26.910156 -48.867188 29.019531 -47.867188 29.652344 C -45.394531 31.226562 -42.292969 31.761719 -38.804688 31.535156 Z M -40.023438 30.519531 L -40.917969 30.554688 C -45.828125 30.695312 -50.171875 27.929688 -50.425781 24.003906 C -50.664062 20.332031 -47.300781 15.652344 -37.417969 11.429688 C -24.707031 5.984375 -8.539062 4.058594 5.339844 0.0507812 C -0.839844 7.941406 -9.246094 16.511719 -19.960938 22.984375 C -26.113281 26.6875 -32.863281 30.054688 -40.023438 30.519531 Z M -40.023438 30.519531 "/></g></g></g></svg>